<svg width="84" height="19" viewBox="0 0 84 19" fill="none" xmlns="http://www.w3.org/2000/svg">
<path d="M0.321023 0.545454H5.54545L9.97727 11.3523H10.1818L14.6136 0.545454H19.8381V18H15.7301V7.27841H15.5852L11.392 17.8892H8.76705L4.57386 7.21875H4.42898V18H0.321023V0.545454ZM28.5803 18.2472C27.2053 18.2472 26.0234 17.9659 25.0348 17.4034C24.0518 16.8352 23.2933 16.0455 22.7592 15.0341C22.2308 14.017 21.9666 12.8381 21.9666 11.4972C21.9666 10.1506 22.2308 8.97159 22.7592 7.96023C23.2933 6.94318 24.0518 6.15341 25.0348 5.59091C26.0234 5.02273 27.2053 4.73864 28.5803 4.73864C29.9553 4.73864 31.1342 5.02273 32.1172 5.59091C33.1058 6.15341 33.8643 6.94318 34.3928 7.96023C34.9268 8.97159 35.1939 10.1506 35.1939 11.4972C35.1939 12.8381 34.9268 14.017 34.3928 15.0341C33.8643 16.0455 33.1058 16.8352 32.1172 17.4034C31.1342 17.9659 29.9553 18.2472 28.5803 18.2472ZM28.6058 15.1023C29.1058 15.1023 29.5291 14.9489 29.8757 14.642C30.2223 14.3352 30.4865 13.9091 30.6683 13.3636C30.8558 12.8182 30.9496 12.1875 30.9496 11.4716C30.9496 10.7443 30.8558 10.108 30.6683 9.5625C30.4865 9.01705 30.2223 8.59091 29.8757 8.28409C29.5291 7.97727 29.1058 7.82386 28.6058 7.82386C28.0888 7.82386 27.6513 7.97727 27.2933 8.28409C26.9411 8.59091 26.6712 9.01705 26.4837 9.5625C26.3018 10.108 26.2109 10.7443 26.2109 11.4716C26.2109 12.1875 26.3018 12.8182 26.4837 13.3636C26.6712 13.9091 26.9411 14.3352 27.2933 14.642C27.6513 14.9489 28.0888 15.1023 28.6058 15.1023ZM49.6058 4.90909L45.1143 18H40.3416L35.8587 4.90909H40.2479L42.6598 13.9261H42.7962L45.2166 4.90909H49.6058ZM56.9013 18.2472C55.532 18.2472 54.3501 17.9773 53.3558 17.4375C52.3672 16.892 51.6058 16.1165 51.0717 15.1108C50.5433 14.0994 50.2791 12.8977 50.2791 11.5057C50.2791 10.1534 50.5462 8.97159 51.0803 7.96023C51.6143 6.94318 52.3672 6.15341 53.3388 5.59091C54.3104 5.02273 55.4553 4.73864 56.7734 4.73864C57.7053 4.73864 58.5575 4.88352 59.3303 5.17329C60.103 5.46307 60.7706 5.89205 61.3331 6.46023C61.8956 7.02841 62.3331 7.73011 62.6456 8.56534C62.9581 9.39489 63.1143 10.3466 63.1143 11.4205V12.4602H51.7365V10.0398H59.2365C59.2308 9.59659 59.1257 9.2017 58.9212 8.85511C58.7166 8.50852 58.4354 8.23864 58.0774 8.04545C57.7251 7.84659 57.3189 7.74716 56.8587 7.74716C56.3928 7.74716 55.9751 7.85227 55.6058 8.0625C55.2365 8.26705 54.9439 8.5483 54.728 8.90625C54.5121 9.25852 54.3984 9.65909 54.3871 10.108V12.571C54.3871 13.1051 54.4922 13.5739 54.7024 13.9773C54.9126 14.375 55.2109 14.6847 55.5973 14.9062C55.9837 15.1278 56.4439 15.2386 56.978 15.2386C57.3473 15.2386 57.6825 15.1875 57.9837 15.0852C58.2848 14.983 58.5433 14.8324 58.7592 14.6335C58.9751 14.4347 59.1371 14.1903 59.245 13.9006L63.0717 14.0114C62.9126 14.8693 62.5632 15.6165 62.0234 16.2528C61.4893 16.8835 60.7876 17.375 59.9183 17.7273C59.049 18.0739 58.0433 18.2472 56.9013 18.2472ZM76.6719 8.90625L72.8452 9.00852C72.8054 8.7358 72.6974 8.49432 72.5213 8.28409C72.3452 8.06818 72.1151 7.90057 71.831 7.78125C71.5526 7.65625 71.2287 7.59375 70.8594 7.59375C70.3764 7.59375 69.9645 7.69034 69.6236 7.88352C69.2884 8.0767 69.1236 8.33807 69.1293 8.66761C69.1236 8.9233 69.2259 9.14489 69.4361 9.33239C69.652 9.51989 70.0355 9.67045 70.5866 9.78409L73.1094 10.2614C74.4162 10.5114 75.3878 10.9261 76.0241 11.5057C76.6662 12.0852 76.9901 12.8523 76.9957 13.8068C76.9901 14.7045 76.723 15.4858 76.1946 16.1506C75.6719 16.8153 74.956 17.3324 74.0469 17.7017C73.1378 18.0653 72.098 18.2472 70.9276 18.2472C69.0582 18.2472 67.5838 17.8636 66.5043 17.0966C65.4304 16.3239 64.8168 15.2898 64.6634 13.9943L68.7798 13.892C68.8707 14.3693 69.1065 14.733 69.4872 14.983C69.8679 15.233 70.3537 15.358 70.9446 15.358C71.4787 15.358 71.9134 15.2585 72.2486 15.0597C72.5838 14.8608 72.7543 14.5966 72.7599 14.267C72.7543 13.9716 72.6236 13.7358 72.3679 13.5597C72.1122 13.3778 71.7116 13.2358 71.1662 13.1335L68.8821 12.6989C67.5696 12.4602 66.5923 12.0199 65.9503 11.3778C65.3082 10.7301 64.9901 9.90625 64.9957 8.90625C64.9901 8.03125 65.223 7.28409 65.6946 6.66477C66.1662 6.03977 66.8366 5.5625 67.706 5.23295C68.5753 4.90341 69.6009 4.73864 70.7827 4.73864C72.5554 4.73864 73.9531 5.1108 74.9759 5.85511C75.9986 6.59375 76.5639 7.6108 76.6719 8.90625ZM81.3913 18.2472C80.7777 18.2472 80.2521 18.0312 79.8146 17.5994C79.3828 17.1676 79.1697 16.6449 79.1754 16.0312C79.1697 15.429 79.3828 14.9148 79.8146 14.4886C80.2521 14.0568 80.7777 13.8409 81.3913 13.8409C81.9709 13.8409 82.4822 14.0568 82.9254 14.4886C83.3743 14.9148 83.6016 15.429 83.6072 16.0312C83.6016 16.4403 83.4936 16.8125 83.2834 17.1477C83.0788 17.483 82.8089 17.75 82.4737 17.9489C82.1442 18.1477 81.7834 18.2472 81.3913 18.2472ZM81.3913 9.2642C80.7777 9.2642 80.2521 9.05114 79.8146 8.625C79.3828 8.19318 79.1697 7.66761 79.1754 7.0483C79.1697 6.44602 79.3828 5.93182 79.8146 5.50568C80.2521 5.07386 80.7777 4.85795 81.3913 4.85795C81.9709 4.85795 82.4822 5.07386 82.9254 5.50568C83.3743 5.93182 83.6016 6.44602 83.6072 7.0483C83.6016 7.45739 83.4936 7.82955 83.2834 8.16477C83.0788 8.5 82.8089 8.76705 82.4737 8.96591C82.1442 9.16477 81.7834 9.2642 81.3913 9.2642Z" fill="black"/>
</svg>
