<svg width="116" height="39" viewBox="0 0 116 39" fill="none" xmlns="http://www.w3.org/2000/svg">
<rect x="1" y="1" width="114" height="37" rx="12" fill="#ECECEC"/>
<path d="M15.298 25.084C14.57 25.084 13.87 24.9673 13.198 24.734C12.5353 24.4913 12.022 24.1833 11.658 23.81L12.064 23.012C12.4093 23.348 12.8713 23.6327 13.45 23.866C14.038 24.09 14.654 24.202 15.298 24.202C15.914 24.202 16.4133 24.1273 16.796 23.978C17.188 23.8193 17.4727 23.6093 17.65 23.348C17.8367 23.0867 17.93 22.7973 17.93 22.48C17.93 22.0973 17.818 21.7893 17.594 21.556C17.3793 21.3227 17.0947 21.1407 16.74 21.01C16.3853 20.87 15.9933 20.7487 15.564 20.646C15.1347 20.5433 14.7053 20.436 14.276 20.324C13.8467 20.2027 13.45 20.044 13.086 19.848C12.7313 19.652 12.442 19.3953 12.218 19.078C12.0033 18.7513 11.896 18.3267 11.896 17.804C11.896 17.3187 12.022 16.8753 12.274 16.474C12.5353 16.0633 12.932 15.7367 13.464 15.494C13.996 15.242 14.6773 15.116 15.508 15.116C16.0587 15.116 16.6047 15.1953 17.146 15.354C17.6873 15.5033 18.154 15.7133 18.546 15.984L18.196 16.81C17.776 16.53 17.328 16.3247 16.852 16.194C16.3853 16.0633 15.9327 15.998 15.494 15.998C14.906 15.998 14.4207 16.0773 14.038 16.236C13.6553 16.3947 13.3707 16.6093 13.184 16.88C13.0067 17.1413 12.918 17.44 12.918 17.776C12.918 18.1587 13.0253 18.4667 13.24 18.7C13.464 18.9333 13.7533 19.1153 14.108 19.246C14.472 19.3767 14.8687 19.4933 15.298 19.596C15.7273 19.6987 16.152 19.8107 16.572 19.932C17.0013 20.0533 17.3933 20.212 17.748 20.408C18.112 20.5947 18.4013 20.8467 18.616 21.164C18.84 21.4813 18.952 21.8967 18.952 22.41C18.952 22.886 18.8213 23.3293 18.56 23.74C18.2987 24.1413 17.8973 24.468 17.356 24.72C16.824 24.9627 16.138 25.084 15.298 25.084ZM22.3606 25L19.5886 17.65H20.5406L23.0606 24.468H22.6266L25.2166 17.65H26.0706L28.6326 24.468H28.1986L30.7606 17.65H31.6706L28.8846 25H27.9466L25.4826 18.588H25.7766L23.2986 25H22.3606ZM35.9582 25.07C35.2488 25.07 34.6095 24.9113 34.0402 24.594C33.4802 24.2673 33.0368 23.824 32.7102 23.264C32.3835 22.6947 32.2202 22.046 32.2202 21.318C32.2202 20.5807 32.3835 19.932 32.7102 19.372C33.0368 18.812 33.4802 18.3733 34.0402 18.056C34.6002 17.7387 35.2395 17.58 35.9582 17.58C36.6862 17.58 37.3302 17.7387 37.8902 18.056C38.4595 18.3733 38.9028 18.812 39.2202 19.372C39.5468 19.932 39.7102 20.5807 39.7102 21.318C39.7102 22.046 39.5468 22.6947 39.2202 23.264C38.9028 23.824 38.4595 24.2673 37.8902 24.594C37.3208 24.9113 36.6768 25.07 35.9582 25.07ZM35.9582 24.188C36.4902 24.188 36.9615 24.0713 37.3722 23.838C37.7828 23.5953 38.1048 23.2593 38.3382 22.83C38.5808 22.3913 38.7022 21.8873 38.7022 21.318C38.7022 20.7393 38.5808 20.2353 38.3382 19.806C38.1048 19.3767 37.7828 19.0453 37.3722 18.812C36.9615 18.5693 36.4948 18.448 35.9722 18.448C35.4495 18.448 34.9828 18.5693 34.5722 18.812C34.1615 19.0453 33.8348 19.3767 33.5922 19.806C33.3495 20.2353 33.2282 20.7393 33.2282 21.318C33.2282 21.8873 33.3495 22.3913 33.5922 22.83C33.8348 23.2593 34.1615 23.5953 34.5722 23.838C34.9828 24.0713 35.4448 24.188 35.9582 24.188ZM41.7395 25V17.65H42.6915V19.652L42.5935 19.302C42.7988 18.742 43.1442 18.3173 43.6295 18.028C44.1148 17.7293 44.7168 17.58 45.4355 17.58V18.546C45.3982 18.546 45.3608 18.546 45.3235 18.546C45.2862 18.5367 45.2488 18.532 45.2115 18.532C44.4368 18.532 43.8302 18.77 43.3915 19.246C42.9528 19.7127 42.7335 20.38 42.7335 21.248V25H41.7395ZM50.1069 25.07C49.4069 25.07 48.7769 24.9113 48.2169 24.594C47.6663 24.2767 47.2323 23.838 46.9149 23.278C46.5976 22.7087 46.4389 22.0553 46.4389 21.318C46.4389 20.5713 46.5976 19.918 46.9149 19.358C47.2323 18.798 47.6663 18.364 48.2169 18.056C48.7769 17.7387 49.4069 17.58 50.1069 17.58C50.7509 17.58 51.3249 17.7247 51.8289 18.014C52.3423 18.3033 52.7483 18.728 53.0469 19.288C53.3549 19.8387 53.5089 20.5153 53.5089 21.318C53.5089 22.1113 53.3596 22.788 53.0609 23.348C52.7623 23.908 52.3563 24.3373 51.8429 24.636C51.3389 24.9253 50.7603 25.07 50.1069 25.07ZM50.1769 24.188C50.6996 24.188 51.1663 24.0713 51.5769 23.838C51.9969 23.5953 52.3236 23.2593 52.5569 22.83C52.7996 22.3913 52.9209 21.8873 52.9209 21.318C52.9209 20.7393 52.7996 20.2353 52.5569 19.806C52.3236 19.3767 51.9969 19.0453 51.5769 18.812C51.1663 18.5693 50.6996 18.448 50.1769 18.448C49.6636 18.448 49.2016 18.5693 48.7909 18.812C48.3803 19.0453 48.0536 19.3767 47.8109 19.806C47.5683 20.2353 47.4469 20.7393 47.4469 21.318C47.4469 21.8873 47.5683 22.3913 47.8109 22.83C48.0536 23.2593 48.3803 23.5953 48.7909 23.838C49.2016 24.0713 49.6636 24.188 50.1769 24.188ZM52.9489 25V22.788L53.0469 21.304L52.9069 19.82V14.612H53.9009V25H52.9489ZM60.5433 25V15.2H64.5333C65.5786 15.2 66.4933 15.41 67.2773 15.83C68.0706 16.2407 68.6866 16.8147 69.1253 17.552C69.5639 18.2893 69.7833 19.1387 69.7833 20.1C69.7833 21.0613 69.5639 21.9107 69.1253 22.648C68.6866 23.3853 68.0706 23.964 67.2773 24.384C66.4933 24.7947 65.5786 25 64.5333 25H60.5433ZM61.5793 24.104H64.4773C65.3453 24.104 66.0966 23.936 66.7313 23.6C67.3753 23.2547 67.8746 22.7833 68.2293 22.186C68.5839 21.5793 68.7613 20.884 68.7613 20.1C68.7613 19.3067 68.5839 18.6113 68.2293 18.014C67.8746 17.4167 67.3753 16.95 66.7313 16.614C66.0966 16.2687 65.3453 16.096 64.4773 16.096H61.5793V24.104ZM76.5057 25V23.376L76.4637 23.11V20.394C76.4637 19.7687 76.2863 19.288 75.9317 18.952C75.5863 18.616 75.0683 18.448 74.3777 18.448C73.9017 18.448 73.449 18.5273 73.0197 18.686C72.5903 18.8447 72.2263 19.0547 71.9277 19.316L71.4797 18.574C71.853 18.2567 72.301 18.014 72.8237 17.846C73.3463 17.6687 73.897 17.58 74.4757 17.58C75.4277 17.58 76.1603 17.818 76.6737 18.294C77.1963 18.7607 77.4577 19.4747 77.4577 20.436V25H76.5057ZM73.9717 25.07C73.421 25.07 72.9403 24.9813 72.5297 24.804C72.1283 24.6173 71.8203 24.3653 71.6057 24.048C71.391 23.7213 71.2837 23.348 71.2837 22.928C71.2837 22.5453 71.3723 22.2 71.5497 21.892C71.7363 21.5747 72.035 21.3227 72.4457 21.136C72.8657 20.94 73.4257 20.842 74.1257 20.842H76.6597V21.584H74.1537C73.4443 21.584 72.9497 21.71 72.6697 21.962C72.399 22.214 72.2637 22.5267 72.2637 22.9C72.2637 23.32 72.427 23.656 72.7537 23.908C73.0803 24.16 73.5377 24.286 74.1257 24.286C74.6857 24.286 75.1663 24.16 75.5677 23.908C75.9783 23.6467 76.277 23.2733 76.4637 22.788L76.6877 23.474C76.501 23.9593 76.1743 24.3467 75.7077 24.636C75.2503 24.9253 74.6717 25.07 73.9717 25.07ZM83.9095 17.58C84.5068 17.58 85.0295 17.6967 85.4775 17.93C85.9348 18.154 86.2895 18.4993 86.5415 18.966C86.8028 19.4327 86.9335 20.0207 86.9335 20.73V25H85.9395V20.828C85.9395 20.0533 85.7435 19.47 85.3515 19.078C84.9688 18.6767 84.4275 18.476 83.7275 18.476C83.2048 18.476 82.7475 18.5833 82.3555 18.798C81.9728 19.0033 81.6742 19.3067 81.4595 19.708C81.2542 20.1 81.1515 20.576 81.1515 21.136V25H80.1575V17.65H81.1095V19.666L80.9555 19.288C81.1888 18.756 81.5622 18.3407 82.0755 18.042C82.5888 17.734 83.2002 17.58 83.9095 17.58ZM92.6704 25.07C91.9424 25.07 91.2891 24.9113 90.7104 24.594C90.1411 24.2673 89.6931 23.824 89.3664 23.264C89.0398 22.6947 88.8764 22.046 88.8764 21.318C88.8764 20.5807 89.0398 19.932 89.3664 19.372C89.6931 18.812 90.1411 18.3733 90.7104 18.056C91.2891 17.7387 91.9424 17.58 92.6704 17.58C93.2958 17.58 93.8604 17.7013 94.3644 17.944C94.8684 18.1867 95.2651 18.5507 95.5544 19.036L94.8124 19.54C94.5604 19.1667 94.2478 18.8913 93.8744 18.714C93.5011 18.5367 93.0951 18.448 92.6564 18.448C92.1338 18.448 91.6624 18.5693 91.2424 18.812C90.8224 19.0453 90.4911 19.3767 90.2484 19.806C90.0058 20.2353 89.8844 20.7393 89.8844 21.318C89.8844 21.8967 90.0058 22.4007 90.2484 22.83C90.4911 23.2593 90.8224 23.5953 91.2424 23.838C91.6624 24.0713 92.1338 24.188 92.6564 24.188C93.0951 24.188 93.5011 24.0993 93.8744 23.922C94.2478 23.7447 94.5604 23.474 94.8124 23.11L95.5544 23.614C95.2651 24.09 94.8684 24.454 94.3644 24.706C93.8604 24.9487 93.2958 25.07 92.6704 25.07ZM100.506 25.07C99.7407 25.07 99.0687 24.9113 98.49 24.594C97.9114 24.2673 97.4587 23.824 97.132 23.264C96.8054 22.6947 96.642 22.046 96.642 21.318C96.642 20.59 96.796 19.946 97.104 19.386C97.4214 18.826 97.8507 18.3873 98.392 18.07C98.9427 17.7433 99.5587 17.58 100.24 17.58C100.931 17.58 101.542 17.7387 102.074 18.056C102.615 18.364 103.04 18.8027 103.348 19.372C103.656 19.932 103.81 20.5807 103.81 21.318C103.81 21.3647 103.805 21.416 103.796 21.472C103.796 21.5187 103.796 21.57 103.796 21.626H97.398V20.884H103.264L102.872 21.178C102.872 20.646 102.755 20.1747 102.522 19.764C102.298 19.344 101.99 19.0173 101.598 18.784C101.206 18.5507 100.753 18.434 100.24 18.434C99.736 18.434 99.2834 18.5507 98.882 18.784C98.4807 19.0173 98.168 19.344 97.944 19.764C97.72 20.184 97.608 20.6647 97.608 21.206V21.36C97.608 21.92 97.7294 22.4147 97.972 22.844C98.224 23.264 98.5694 23.5953 99.008 23.838C99.456 24.0713 99.9647 24.188 100.534 24.188C100.982 24.188 101.397 24.1087 101.78 23.95C102.172 23.7913 102.508 23.5487 102.788 23.222L103.348 23.866C103.021 24.258 102.611 24.5567 102.116 24.762C101.631 24.9673 101.094 25.07 100.506 25.07Z" fill="black"/>
<rect x="0.5" y="0.5" width="115" height="38" rx="12.5" stroke="black" stroke-opacity="0.14" stroke-dasharray="3 3"/>
</svg>
