<svg width="96" height="39" viewBox="0 0 96 39" fill="none" xmlns="http://www.w3.org/2000/svg">
<rect x="1" y="1" width="94" height="37" rx="12" fill="#ECECEC"/>
<path d="M15.382 25L11.042 15.2H12.162L16.222 24.426H15.606L19.694 15.2H20.744L16.404 25H15.382ZM21.9153 25V17.65H22.9093V25H21.9153ZM22.4193 16.026C22.214 16.026 22.0413 15.956 21.9013 15.816C21.7613 15.676 21.6913 15.508 21.6913 15.312C21.6913 15.116 21.7613 14.9527 21.9013 14.822C22.0413 14.682 22.214 14.612 22.4193 14.612C22.6246 14.612 22.7973 14.6773 22.9373 14.808C23.0773 14.9387 23.1473 15.102 23.1473 15.298C23.1473 15.5033 23.0773 15.676 22.9373 15.816C22.8066 15.956 22.634 16.026 22.4193 16.026ZM29.4271 17.58C30.0244 17.58 30.5471 17.6967 30.9951 17.93C31.4524 18.154 31.8071 18.4993 32.0591 18.966C32.3204 19.4327 32.4511 20.0207 32.4511 20.73V25H31.4571V20.828C31.4571 20.0533 31.2611 19.47 30.8691 19.078C30.4864 18.6767 29.9451 18.476 29.2451 18.476C28.7224 18.476 28.2651 18.5833 27.8731 18.798C27.4904 19.0033 27.1917 19.3067 26.9771 19.708C26.7717 20.1 26.6691 20.576 26.6691 21.136V25H25.6751V17.65H26.6271V19.666L26.4731 19.288C26.7064 18.756 27.0797 18.3407 27.5931 18.042C28.1064 17.734 28.7177 17.58 29.4271 17.58ZM38.258 25.07C37.4927 25.07 36.8207 24.9113 36.242 24.594C35.6633 24.2673 35.2107 23.824 34.884 23.264C34.5573 22.6947 34.394 22.046 34.394 21.318C34.394 20.59 34.548 19.946 34.856 19.386C35.1733 18.826 35.6027 18.3873 36.144 18.07C36.6947 17.7433 37.3107 17.58 37.992 17.58C38.6827 17.58 39.294 17.7387 39.826 18.056C40.3673 18.364 40.792 18.8027 41.1 19.372C41.408 19.932 41.562 20.5807 41.562 21.318C41.562 21.3647 41.5573 21.416 41.548 21.472C41.548 21.5187 41.548 21.57 41.548 21.626H35.15V20.884H41.016L40.624 21.178C40.624 20.646 40.5073 20.1747 40.274 19.764C40.05 19.344 39.742 19.0173 39.35 18.784C38.958 18.5507 38.5053 18.434 37.992 18.434C37.488 18.434 37.0353 18.5507 36.634 18.784C36.2327 19.0173 35.92 19.344 35.696 19.764C35.472 20.184 35.36 20.6647 35.36 21.206V21.36C35.36 21.92 35.4813 22.4147 35.724 22.844C35.976 23.264 36.3213 23.5953 36.76 23.838C37.208 24.0713 37.7167 24.188 38.286 24.188C38.734 24.188 39.1493 24.1087 39.532 23.95C39.924 23.7913 40.26 23.5487 40.54 23.222L41.1 23.866C40.7733 24.258 40.3627 24.5567 39.868 24.762C39.3827 24.9673 38.846 25.07 38.258 25.07ZM49.6853 25L46.3813 15.2H47.4453L50.5393 24.426H50.0073L53.1993 15.2H54.1513L57.3013 24.426H56.7973L59.9193 15.2H60.9133L57.6093 25H56.5173L53.5073 16.25H53.7873L50.7633 25H49.6853ZM66.5599 17.58C67.1572 17.58 67.6799 17.6967 68.1279 17.93C68.5852 18.154 68.9399 18.4993 69.1919 18.966C69.4532 19.4327 69.5839 20.0207 69.5839 20.73V25H68.5899V20.828C68.5899 20.0533 68.3939 19.47 68.0019 19.078C67.6192 18.6767 67.0779 18.476 66.3779 18.476C65.8552 18.476 65.3979 18.5833 65.0059 18.798C64.6232 19.0033 64.3245 19.3067 64.1099 19.708C63.9045 20.1 63.8019 20.576 63.8019 21.136V25H62.8079V14.612H63.8019V19.666L63.6059 19.288C63.8392 18.756 64.2125 18.3407 64.7259 18.042C65.2392 17.734 65.8505 17.58 66.5599 17.58ZM72.2688 25V17.65H73.2628V25H72.2688ZM72.7728 16.026C72.5675 16.026 72.3948 15.956 72.2548 15.816C72.1148 15.676 72.0448 15.508 72.0448 15.312C72.0448 15.116 72.1148 14.9527 72.2548 14.822C72.3948 14.682 72.5675 14.612 72.7728 14.612C72.9781 14.612 73.1508 14.6773 73.2908 14.808C73.4308 14.9387 73.5008 15.102 73.5008 15.298C73.5008 15.5033 73.4308 15.676 73.2908 15.816C73.1601 15.956 72.9875 16.026 72.7728 16.026ZM79.8226 25.07C79.1879 25.07 78.6139 24.9253 78.1006 24.636C77.5872 24.3373 77.1766 23.9127 76.8686 23.362C76.5699 22.802 76.4206 22.1207 76.4206 21.318C76.4206 20.5153 76.5699 19.8387 76.8686 19.288C77.1672 18.728 77.5732 18.3033 78.0866 18.014C78.5999 17.7247 79.1786 17.58 79.8226 17.58C80.5226 17.58 81.1479 17.7387 81.6986 18.056C82.2586 18.364 82.6972 18.8027 83.0146 19.372C83.3319 19.932 83.4906 20.5807 83.4906 21.318C83.4906 22.0647 83.3319 22.718 83.0146 23.278C82.6972 23.838 82.2586 24.2767 81.6986 24.594C81.1479 24.9113 80.5226 25.07 79.8226 25.07ZM76.0286 27.716V17.65H76.9806V19.862L76.8826 21.332L77.0226 22.816V27.716H76.0286ZM79.7526 24.188C80.2752 24.188 80.7419 24.0713 81.1526 23.838C81.5632 23.5953 81.8899 23.2593 82.1326 22.83C82.3752 22.3913 82.4966 21.8873 82.4966 21.318C82.4966 20.7487 82.3752 20.2493 82.1326 19.82C81.8899 19.3907 81.5632 19.0547 81.1526 18.812C80.7419 18.5693 80.2752 18.448 79.7526 18.448C79.2299 18.448 78.7586 18.5693 78.3386 18.812C77.9279 19.0547 77.6012 19.3907 77.3586 19.82C77.1252 20.2493 77.0086 20.7487 77.0086 21.318C77.0086 21.8873 77.1252 22.3913 77.3586 22.83C77.6012 23.2593 77.9279 23.5953 78.3386 23.838C78.7586 24.0713 79.2299 24.188 79.7526 24.188Z" fill="black"/>
<rect x="0.5" y="0.5" width="95" height="38" rx="12.5" stroke="black" stroke-opacity="0.14" stroke-dasharray="3 3"/>
</svg>
