<svg width="47" height="39" viewBox="0 0 47 39" fill="none" xmlns="http://www.w3.org/2000/svg">
<rect x="1" y="1" width="45" height="37" rx="12" fill="#ECECEC"/>
<path d="M16.852 25.084C16.1147 25.084 15.4333 24.9627 14.808 24.72C14.1827 24.468 13.6413 24.118 13.184 23.67C12.7267 23.222 12.3673 22.6947 12.106 22.088C11.854 21.4813 11.728 20.8187 11.728 20.1C11.728 19.3813 11.854 18.7187 12.106 18.112C12.3673 17.5053 12.7267 16.978 13.184 16.53C13.6507 16.082 14.1967 15.7367 14.822 15.494C15.4473 15.242 16.1287 15.116 16.866 15.116C17.5753 15.116 18.2427 15.2373 18.868 15.48C19.4933 15.7133 20.0207 16.068 20.45 16.544L19.792 17.202C19.3907 16.7913 18.9473 16.4973 18.462 16.32C17.9767 16.1333 17.454 16.04 16.894 16.04C16.306 16.04 15.76 16.1427 15.256 16.348C14.752 16.544 14.3133 16.8287 13.94 17.202C13.5667 17.566 13.2727 17.9953 13.058 18.49C12.8527 18.9753 12.75 19.512 12.75 20.1C12.75 20.688 12.8527 21.2293 13.058 21.724C13.2727 22.2093 13.5667 22.6387 13.94 23.012C14.3133 23.376 14.752 23.6607 15.256 23.866C15.76 24.062 16.306 24.16 16.894 24.16C17.454 24.16 17.9767 24.0667 18.462 23.88C18.9473 23.6933 19.3907 23.3947 19.792 22.984L20.45 23.642C20.0207 24.118 19.4933 24.4773 18.868 24.72C18.2427 24.9627 17.5707 25.084 16.852 25.084ZM25.2404 25.07C24.6151 25.07 24.0691 24.9533 23.6024 24.72C23.1357 24.4867 22.7717 24.1367 22.5104 23.67C22.2584 23.2033 22.1324 22.62 22.1324 21.92V17.65H23.1264V21.808C23.1264 22.592 23.3177 23.1847 23.7004 23.586C24.0924 23.978 24.6384 24.174 25.3384 24.174C25.8517 24.174 26.2951 24.0713 26.6684 23.866C27.0511 23.6513 27.3404 23.3433 27.5364 22.942C27.7417 22.5407 27.8444 22.06 27.8444 21.5V17.65H28.8384V25H27.8864V22.984L28.0404 23.348C27.8071 23.8893 27.4431 24.314 26.9484 24.622C26.4631 24.9207 25.8937 25.07 25.2404 25.07ZM33.9327 25.07C33.242 25.07 32.71 24.8833 32.3367 24.51C31.9633 24.1367 31.7767 23.6093 31.7767 22.928V16.026H32.7707V22.872C32.7707 23.3013 32.878 23.6327 33.0927 23.866C33.3167 24.0993 33.634 24.216 34.0447 24.216C34.4833 24.216 34.8473 24.09 35.1367 23.838L35.4867 24.552C35.2907 24.7293 35.0527 24.86 34.7727 24.944C34.502 25.028 34.222 25.07 33.9327 25.07ZM30.4607 18.476V17.65H35.0107V18.476H30.4607Z" fill="black"/>
<rect x="0.5" y="0.5" width="46" height="38" rx="12.5" stroke="black" stroke-opacity="0.14" stroke-dasharray="3 3"/>
</svg>
